<svg width="24" height="24" viewBox="0 0 24 24" fill="none" xmlns="http://www.w3.org/2000/svg">
<path d="M9.09 9C9.3251 8.33167 9.78915 7.76811 10.4 7.40913C11.0108 7.05016 11.7289 6.91894 12.4272 7.03871C13.1255 7.15849 13.7588 7.52152 14.2151 8.06353C14.6713 8.60553 14.9211 9.29152 14.92 10C14.92 12 11.92 13 11.92 13M12 17H12.01M12 2C9.34784 2 6.8043 3.05357 4.92893 4.92893C3.05357 6.8043 2 9.34784 2 12C2 14.6522 3.05357 17.1957 4.92893 19.0711C6.8043 20.9464 9.34784 22 12 22C14.6522 22 17.1957 20.9464 19.0711 19.0711C20.9464 17.1957 22 14.6522 22 12C22 9.34784 20.9464 6.8043 19.0711 4.92893C17.1957 3.05357 14.6522 2 12 2Z" stroke="#000D4D" stroke-opacity="0.45" stroke-width="2" stroke-linecap="round" stroke-linejoin="round"/>
</svg>
